HIERARCHY
ROOT hip
{
	OFFSET 0.000000 0.000000 0.000000 
	CHANNELS 6 Xposition Yposition Zposition Xrotation Zrotation Yrotation
	JOINT abdomen
	{
		OFFSET 0.000000 3.402643 0.000000 
		CHANNELS 3 Xrotation Zrotation Yrotation
		JOINT chest
		{
			OFFSET 0.000000 8.438565 -0.680529 
			CHANNELS 3 Xrotation Zrotation Yrotation
			JOINT neck
			{
				OFFSET 0.000000 10.207942 -0.272212 
				CHANNELS 3 Xrotation Zrotation Yrotation
				JOINT head
				{
					OFFSET 0.000000 3.130431 0.000000 
					CHANNELS 3 Xrotation Zrotation Yrotation
					End Site
					{
						OFFSET 0.000000 3.130435 0.000000 
					}
				}
			}
			JOINT lCollar
			{
				OFFSET 3.470700 6.669187 -0.816635 
				CHANNELS 3 Yrotation Zrotation Xrotation
				JOINT lShldr
				{
					OFFSET 3.198488 0.000000 0.000000 
					CHANNELS 3 Zrotation Yrotation Xrotation
					JOINT lForeArm
					{
						OFFSET 10.139888 0.000000 0.000000 
						CHANNELS 3 Yrotation Zrotation Xrotation
						JOINT lHand
						{
							OFFSET 8.370511 0.000000 0.000000 
							CHANNELS 3 Zrotation Yrotation Xrotation
							End Site
							{
								OFFSET 4.083176 0.000000 0.000000 
							}
						}
					}
				}
			}
			JOINT rCollar
			{
				OFFSET -3.470700 6.669187 -0.816635 
				CHANNELS 3 Yrotation Zrotation Xrotation
				JOINT rShldr
				{
					OFFSET -3.198488 0.000000 0.000000 
					CHANNELS 3 Zrotation Yrotation Xrotation
					JOINT rForeArm
					{
						OFFSET -10.139888 0.000000 0.000000 
						CHANNELS 3 Yrotation Zrotation Xrotation
						JOINT rHand
						{
							OFFSET -8.370511 0.000000 0.000000 
							CHANNELS 3 Zrotation Yrotation Xrotation
							End Site
							{
								OFFSET -4.083176 0.000000 0.000000 
							}
						}
					}
				}
			}
		}
	}
	JOINT lThigh
	{
		OFFSET 5.308129 -1.633274 1.361059 
		CHANNELS 3 Xrotation Zrotation Yrotation
		JOINT lShin
		{
			OFFSET -2.041588 -20.007561 0.000000 
			CHANNELS 3 Xrotation Zrotation Yrotation
			JOINT lFoot
			{
				OFFSET 0.000000 -19.190928 -1.224953 
				CHANNELS 3 Xrotation Yrotation Zrotation
				End Site
				{
					OFFSET 0.000000 -2.449906 4.627600 
				}
			}
		}
	}
	JOINT rThigh
	{
		OFFSET -5.308129 -1.633274 1.361059 
		CHANNELS 3 Xrotation Zrotation Yrotation
		JOINT rShin
		{
			OFFSET 2.041588 -20.007561 0.000000 
			CHANNELS 3 Xrotation Zrotation Yrotation
			JOINT rFoot
			{
				OFFSET 0.000000 -19.190928 -1.224953 
				CHANNELS 3 Xrotation Yrotation Zrotation
				End Site
				{
					OFFSET 0.000000 -2.449906 4.627600 
				}
			}
		}
	}
}
MOTION
Frames: 15
Frame Time: 0.033333
-82.956802 48.640800 35.886387 -0.459027 -0.781225 -96.448822 0.000000 0.000000 0.000000 -0.654321 0.488249 -8.628623 8.891401 3.553433 -8.056086 25.615370 0.224120 0.166265 -3.587625 -5.599512 0.135192 -32.501999 21.260172 55.640903 -86.231880 -16.213465 38.971394 59.273693 -18.166439 -15.344049 -13.688293 19.052824 1.141445 16.060913 -18.273102 70.011047 97.593369 2.548921 61.679436 -60.098186 -3.403644 -3.495730 6.865685 -0.369744 3.682721 24.516949 -8.029892 -3.504481 -23.845181 -1.775946 8.339406 -19.832783 -3.417945 -6.341695 8.721143 8.469049 -42.282158 2.991120 -0.049337 -1.609921 
-84.323204 48.580269 35.725941 -0.361430 -1.357395 -97.051987 0.000000 0.000000 0.000000 0.068368 0.888671 -8.045663 9.315207 3.475972 -8.467798 25.378138 1.636303 -1.039966 -2.704911 -5.777582 0.855945 -33.093723 20.671450 53.887192 -85.699684 -16.143143 40.107433 60.156521 -18.445780 -15.718415 -13.288646 18.902298 1.881651 16.482244 -18.295301 69.451813 97.110527 2.751596 62.195347 -60.776070 -3.390910 -3.500648 6.927204 0.966594 6.615868 29.915911 -9.184351 -7.007734 -21.824776 -1.958101 10.114472 -20.607046 -2.469298 -5.403203 13.123163 6.653087 -43.186779 1.377348 -0.058114 -4.751576 
-85.565910 48.509666 35.539566 0.996563 -1.757547 -97.716393 0.000000 0.000000 0.000000 0.908859 2.177460 -7.406525 9.770012 4.137223 -8.645354 25.234703 2.760535 -2.241740 -1.955789 -4.725292 1.726403 -34.317329 19.852728 51.805996 -85.086304 -16.075407 42.016396 58.798058 -18.500278 -15.401159 -12.922126 20.048830 3.006980 15.916033 -17.755365 68.935356 97.157578 3.085975 62.826908 -63.178028 -4.008634 -3.142150 5.024879 3.981600 10.229961 39.214607 -9.137445 -12.989017 -17.012434 -1.948084 13.020488 -20.099253 -0.682959 -5.081321 15.380020 6.092154 -44.290157 0.150911 -0.008712 -6.015637 
-86.699120 48.627083 35.334320 1.758533 -1.639853 -98.742004 0.000000 0.000000 0.000000 1.173408 2.929074 -6.658360 10.421112 4.426200 -8.624537 25.456701 4.197132 -3.280519 -1.117637 -4.328674 1.972050 -35.371227 18.970690 50.343395 -84.256897 -16.169682 43.951233 59.104153 -19.170755 -15.848771 -12.035673 19.967886 3.283939 16.477312 -17.349033 68.772591 96.699829 3.522861 63.144764 -65.552841 -4.494123 -2.815151 0.506415 7.346796 12.419153 49.672016 -7.977664 -19.057875 -7.250294 -0.608216 10.198192 -19.202663 0.302505 -5.066642 16.531404 6.267438 -42.681671 -1.283291 0.076055 -6.409667 
-87.728897 48.626961 35.229996 1.797909 -1.942404 -99.328835 0.000000 0.000000 0.000000 1.584073 2.909046 -6.442632 11.356604 4.546264 -9.134004 25.404585 5.592180 -4.075849 -0.931507 -4.333090 2.337493 -35.695068 18.900988 49.672634 -84.576279 -16.064449 45.223900 59.479195 -19.119829 -15.916994 -11.843628 19.618826 3.607740 16.091818 -16.725807 69.020409 96.985954 3.664715 63.382126 -66.134064 -4.834480 -2.593909 -4.355011 9.275187 11.843398 57.068298 -5.932910 -22.270319 3.829747 0.062823 1.671624 -18.886076 0.458415 -5.127033 18.602156 5.892936 -43.081211 -2.760349 0.158754 -6.680628 
-88.671341 48.711391 35.128315 1.857391 -2.606054 -100.123901 0.000000 0.000000 0.000000 2.444347 2.809945 -6.207888 12.174894 4.541677 -9.512636 25.560713 7.280301 -4.720077 -0.511563 -4.692889 3.120879 -35.235271 18.643866 49.465836 -85.120079 -15.932659 45.300007 59.111450 -19.248575 -15.900824 -11.802052 18.925863 4.336667 16.148182 -16.451735 69.003471 96.969345 3.654242 63.354130 -65.394318 -4.755744 -2.654675 -7.664271 10.338259 10.701946 60.333637 -3.960386 -22.433149 11.909742 -0.675170 -6.215763 -17.879236 0.585754 -5.093120 20.642134 5.657574 -41.487019 -4.317162 0.191219 -5.047189 
-89.578674 48.875748 35.093204 1.516246 -3.338677 -101.455933 0.000000 0.000000 0.000000 3.235190 2.369269 -5.676374 13.073708 4.469694 -9.846057 25.497692 8.368493 -5.398698 -0.077543 -4.995042 3.834988 -35.122223 18.871149 49.531963 -85.719429 -15.550198 44.541039 58.793621 -19.079067 -15.723788 -11.458599 17.934681 4.938879 16.645683 -16.602377 68.882195 96.498604 3.893081 62.960655 -65.053604 -4.356112 -2.907033 -10.888705 10.244152 9.593740 63.312061 -2.605851 -16.789724 13.448132 -0.828682 -7.123933 -16.405607 0.126682 -5.131386 21.568390 5.509566 -39.279392 -5.405991 0.199801 -4.050045 
-90.525887 49.033558 35.108303 1.272995 -4.227476 -103.482986 0.000000 0.000000 0.000000 4.035903 2.094407 -4.891063 13.880386 4.277403 -9.785556 25.343662 8.890594 -6.018956 0.744943 -5.594440 4.568062 -35.208385 19.729023 48.687969 -86.377441 -14.776014 44.616180 57.604321 -19.384640 -15.587060 -10.894767 17.317228 5.587488 16.687925 -16.950647 69.051926 96.277031 3.905890 63.680519 -65.897369 -4.237568 -2.970241 -13.287939 9.752845 8.564622 64.201584 -1.597927 -9.537584 13.034095 -0.766081 -6.620193 -14.703294 -0.253691 -5.084233 22.253502 5.241057 -36.904835 -6.401666 0.185168 -3.204209 
-91.364761 49.276188 35.119003 1.185978 -4.901299 -105.912354 0.000000 0.000000 0.000000 4.729031 1.849157 -4.133929 14.808396 4.014998 -9.386099 25.066500 9.306808 -6.296801 1.415421 -5.718638 5.186575 -36.123611 21.326872 47.582607 -86.449844 -13.848866 44.755081 57.021938 -18.894363 -15.181800 -10.498892 16.931002 6.178501 16.641083 -17.281162 69.193375 96.429024 3.763158 62.995594 -64.832291 -4.544067 -2.797144 -14.832495 9.451892 7.910233 62.424732 -1.138193 -3.584451 11.809589 -0.580821 -5.821674 -12.608983 -0.438697 -4.769530 21.511967 5.056544 -34.220226 -6.769607 0.176236 -2.997938 
-92.235214 49.407814 35.173870 0.834350 -5.800170 -109.010658 0.000000 0.000000 0.000000 5.421370 1.322186 -3.282541 15.421488 3.603850 -9.150491 25.913734 9.013501 -6.500849 2.390081 -6.309382 5.842025 -36.355476 23.275265 46.646324 -86.903648 -13.106286 44.395538 54.763622 -18.329987 -14.342112 -9.859543 16.019903 6.703177 16.866804 -18.037504 69.319267 96.741936 3.485092 63.076027 -63.797695 -5.195425 -2.408883 -15.671290 8.425961 6.749347 59.860748 -0.991216 -0.198738 9.250007 -0.384051 -4.802555 -11.091338 -1.376866 -5.079286 22.154020 5.152155 -30.630304 -7.885353 0.182194 -2.758173 
-93.038849 49.513271 35.238926 1.169841 -6.590435 -111.911858 0.000000 0.000000 0.000000 6.290368 1.164822 -2.723000 16.131001 3.472645 -8.619851 25.903292 9.200935 -6.405952 3.025598 -6.348899 6.648139 -36.587963 25.148172 46.292469 -86.987991 -12.557701 41.974792 50.798443 -18.156876 -13.344968 -9.774208 16.097672 7.544610 15.679711 -18.604309 69.809738 97.328316 3.015331 63.638996 -61.342262 -2.947500 -3.759990 -15.774196 8.198730 5.202590 55.921417 -1.028168 -1.170447 6.290642 -0.338909 -6.828438 -9.411308 -1.786473 -5.132663 22.417603 5.259679 -27.238766 -8.688345 0.201428 -2.615664 
-93.785103 49.662144 35.346901 1.022282 -6.541936 -115.234024 0.000000 0.000000 0.000000 6.514629 0.979961 -2.329355 16.239870 2.842899 -8.055585 26.176672 9.504766 -6.234021 3.858070 -7.359007 6.929681 -35.983383 26.760477 46.181965 -87.136406 -12.423473 40.289421 50.402634 -17.798403 -13.093811 -9.256726 15.342832 7.641890 15.604442 -18.986345 69.809814 97.395462 2.849137 64.040016 -60.235821 -1.739392 -4.436831 -16.402340 7.673705 3.749495 51.183777 -1.456640 -3.365313 2.480071 -0.119709 -5.242430 -8.550895 -2.615917 -5.303820 22.147087 5.633972 -23.087008 -9.154640 0.225948 -2.952019 
-94.397949 49.883499 35.442036 1.287016 -6.277726 -118.451530 0.000000 0.000000 0.000000 6.895407 0.911330 -2.116217 16.562756 2.675324 -7.629468 25.954638 9.618958 -6.034459 4.356319 -7.676527 7.314455 -35.611549 28.189779 46.059422 -87.302322 -12.073959 38.128536 49.446888 -17.419043 -12.715232 -9.180044 15.304833 8.005165 15.088981 -19.013142 69.814705 97.534073 2.622876 64.479668 -58.541737 -1.481469 -4.539239 -17.383617 7.759097 2.787800 45.906185 -1.887730 -4.122491 2.477324 -0.093855 -4.932960 -7.145139 -2.742654 -5.004667 20.337166 5.787472 -19.415068 -8.682360 0.261754 -3.393823 
-94.991936 50.392414 35.610794 1.021489 -6.141610 -122.521820 0.000000 0.000000 0.000000 7.226705 0.358458 -1.448627 17.269535 2.316887 -7.034317 25.525431 9.565848 -5.904152 4.864681 -7.980588 7.632645 -36.014927 29.343134 44.967636 -85.743088 -11.842178 37.732758 47.681194 -18.638371 -12.861283 -8.581143 14.822657 8.217831 15.552217 -19.182207 69.216766 96.169586 2.706033 64.340446 -58.752728 -1.773383 -4.388875 -16.745609 7.752830 3.070702 37.669674 -2.849351 0.636062 5.863775 -0.305105 -6.039733 -4.175566 -3.745547 -5.272284 14.546920 6.533190 -14.786195 -6.090285 0.258049 -4.789243 
-95.698044 50.650520 35.702026 1.295539 -5.730966 -126.008629 0.000000 0.000000 0.000000 7.363442 0.377719 -1.210891 17.489538 2.140635 -6.675743 25.474548 9.540275 -5.871826 5.249016 -7.905609 7.765084 -35.990677 29.836254 43.754986 -83.917183 -11.973404 39.654057 45.242222 -17.522758 -11.857697 -7.946503 13.902917 8.226484 16.593487 -19.995716 68.065765 94.429657 3.132853 64.623810 -59.383701 -1.257372 -4.679023 -13.967665 8.286455 2.611732 25.833887 -4.190001 -5.005054 7.041709 -0.284031 -4.619392 -2.224858 -4.038716 -5.185960 11.498731 6.880077 -10.640496 -5.670741 0.237498 -5.058405 
